<svg id="Camada_1" data-name="Camada 1" xmlns="http://www.w3.org/2000/svg" xmlns:xlink="http://www.w3.org/1999/xlink" viewBox="0 0 512 512"><defs><style>.cls-1{fill:url(#Gradiente_sem_nome_7);}.cls-2{fill:url(#Gradiente_sem_nome_7-2);}</style><radialGradient id="Gradiente_sem_nome_7" cx="294.13" cy="204.91" r="209.06" gradientUnits="userSpaceOnUse"><stop offset="0" stop-color="#83b8f9"/><stop offset="1" stop-color="#2765eb"/></radialGradient><radialGradient id="Gradiente_sem_nome_7-2" cx="32.93" cy="297.69" r="0.16" xlink:href="#Gradiente_sem_nome_7"/></defs><title>ICON 2</title><path class="cls-1" d="M232.72,360.73H32.93V297.47c2.52-53.47,46.48-96.84,100.14-96.84a99.64,99.64,0,0,1,79.57,39.2l-21,16a9.51,9.51,0,0,1-12.52-1A65,65,0,0,0,68.05,298v27.66H232.24l-3.79,4-12.9,13.48,13,13.39Z"/><path class="cls-2" d="M33,297.47a1.68,1.68,0,0,0,0,.44v-.44Z"/><path class="cls-1" d="M479.09,298,479,323.38a37.37,37.37,0,0,1-37.36,37.35H310.16l46,46-51.91.1-44.54-46.1L242.52,343l16.6-17.37L304,278.84l51.91-.1h0c-17.21,17.36-4.92,46.87,19.53,46.87h55.19a13.23,13.23,0,0,0,13.29-13.2l.1-14.94a64.84,64.84,0,0,0-65-61.81,60.16,60.16,0,0,0-11.06,1.06,17.68,17.68,0,0,1-13.49-3.3,16.7,16.7,0,0,1-7-11.93A92.1,92.1,0,0,0,189.83,168.6c-4.75,5.05-12,6.51-18.63,4.56a127.08,127.08,0,0,0-24.84-4.85,127.16,127.16,0,0,1,232.79,32.32C432.91,200.63,476.77,244.19,479.09,298Z"/></svg>