<svg width="368" height="52" viewBox="0 0 368 52" fill="none" xmlns="http://www.w3.org/2000/svg">
<g clip-path="url(#clip0_2101_23)">
<path d="M85 27.4429C85 19.3299 90.323 13 99.3818 13C106.823 13 111.73 17.1988 112.713 24.199H105.9C104.765 20.8349 102.502 19.6903 99.4059 19.6903C94.6864 19.6903 92.1215 22.89 92.1215 27.4429C92.1215 31.9959 94.6864 35.1956 99.4059 35.1956C102.502 35.1956 104.765 34.0447 105.9 30.6869H112.738C111.754 37.6871 106.847 41.8796 99.4059 41.8796C90.323 41.8796 85 35.5497 85 27.4429Z" fill="url(#paint0_radial_2101_23)"/>
<path d="M133.958 41.2852L132.563 37.8073H119.89L118.489 41.2852H111.157L122.442 13.5945H129.992L141.248 41.2852H133.958ZM122.195 32.0023H130.27L126.233 21.7582L122.195 32.0023Z" fill="url(#paint1_radial_2101_23)"/>
<path d="M141.996 41.2852V13.5945H153.463L159.239 34.1649H159.691L165.467 13.5945H176.903V41.2852H169.969V21.1511H169.48L163.59 41.2473H155.388L149.498 21.1511H149.009V41.2852H141.996Z" fill="url(#paint2_radial_2101_23)"/>
<path d="M204.508 24.3571C204.508 30.3708 201.406 35.1071 193.971 35.1071H186.385V41.3168H179.36V13.5945H193.971C201.406 13.5945 204.508 18.3435 204.508 24.3571ZM193.217 28.6255C196.349 28.6255 197.483 27.0067 197.483 24.3571C197.483 21.7076 196.349 20.0824 193.217 20.0824H186.385V28.6255H193.217Z" fill="url(#paint3_radial_2101_23)"/>
<path d="M205.631 27.4429C205.631 19.3299 210.954 13 220.013 13C229.071 13 234.4 19.3235 234.4 27.4429C234.4 35.5624 229.077 41.8796 220.013 41.8796C210.948 41.8796 205.631 35.5497 205.631 27.4429ZM227.303 27.4429C227.303 22.89 224.732 19.6903 220.013 19.6903C215.293 19.6903 212.722 22.89 212.722 27.4429C212.722 31.9959 215.287 35.1956 220.007 35.1956C224.726 35.1956 227.303 32.0022 227.303 27.4429Z" fill="url(#paint4_radial_2101_23)"/>
<path d="M246.929 41.8796C240.894 41.8796 235.336 40.5769 234.919 32.6662H241.413C241.908 35.1956 244.135 35.9481 247.34 35.9481C251.305 35.9481 252.771 34.8794 252.771 32.9381C252.771 31.3572 251.945 30.6047 249.567 30.4087L244.316 29.9724C238.239 29.4601 235.33 26.6082 235.33 21.6253C235.33 16.0859 238.879 13 247.75 13C253.604 13 259.157 14.2647 259.567 22.3019H253.079C252.439 19.7282 250.816 19.0137 247.491 19.0137C243.532 19.0137 242.397 19.9622 242.397 21.5431C242.397 22.9279 243.151 23.7563 245.415 23.9524L250.629 24.4266C256.893 24.9452 259.953 27.3924 259.953 32.7357C259.953 38.6672 256.139 41.8732 246.966 41.8732L246.929 41.8796Z" fill="url(#paint5_radial_2101_23)"/>
<path d="M268 26.8195C268 20.8944 271.736 16 278.38 16C283.305 16 286.781 18.4029 287.916 23.3796H286.274C285.116 19.3199 282.285 17.6884 278.38 17.6884C272.665 17.6884 269.696 21.8366 269.696 26.8448C269.696 31.8531 272.665 36.0076 278.38 36.0076C282.285 36.0076 285.116 34.3446 286.274 30.2849H287.916C286.781 35.2678 283.305 37.6644 278.38 37.6644C271.736 37.6391 268 32.751 268 26.8195Z" fill="url(#paint6_radial_2101_23)"/>
<path d="M292.068 35.565H305.877V37.1965H290.391V16.449H292.087L292.068 35.565Z" fill="url(#paint7_radial_2101_23)"/>
<path d="M306.378 26.8196C306.378 20.8944 310.174 16 316.764 16C323.355 16 327.205 20.9197 327.205 26.8196C327.205 32.7194 323.415 37.6391 316.795 37.6391C310.174 37.6391 306.378 32.751 306.378 26.8196ZM325.473 26.8196C325.473 21.8113 322.504 17.6631 316.764 17.6631C311.025 17.6631 308.08 21.8113 308.08 26.8196C308.08 31.8278 311.049 35.9824 316.764 35.9824C322.48 35.9824 325.473 31.8278 325.473 26.8196Z" fill="url(#paint8_radial_2101_23)"/>
<path d="M329.517 29.0455V16.449H331.212V29.096C331.212 33.4277 333.283 35.976 338.201 35.976C343.12 35.976 345.19 33.4466 345.19 29.096V16.449H346.886V29.0455C346.886 34.7366 343.802 37.6391 338.201 37.6391C332.601 37.6391 329.517 34.7366 329.517 29.0455Z" fill="url(#paint9_radial_2101_23)"/>
<path d="M349.909 37.1965V16.449H358.588C365.226 16.449 368.401 20.3 368.401 26.8196C368.401 33.3391 365.202 37.1965 358.588 37.1965H349.909ZM351.605 35.565H358.244C363.959 35.565 366.693 32.6878 366.693 26.8196C366.693 20.9513 363.977 18.0741 358.244 18.0741H351.605V35.565Z" fill="url(#paint10_radial_2101_23)"/>
<path d="M33 44H0V32.9346C0.420811 23.5761 7.6798 16.0001 16.5421 16.0001C19.0837 15.9897 21.5931 16.6032 23.8733 17.7923C26.1534 18.9815 28.1424 20.7141 29.684 22.8541L26.2207 25.6483C25.9155 25.8911 25.5371 26.0075 25.1566 25.9754C24.7761 25.9434 24.4197 25.7653 24.1546 25.4745C22.6828 23.9043 20.8106 22.8228 18.7672 22.3625C16.7238 21.9021 14.598 22.0829 12.6502 22.8828C10.7024 23.6826 9.01715 25.0668 7.80096 26.8656C6.58477 28.6645 5.89042 30.7999 5.80298 33.0104V37.859H32.92L32.293 38.572L30.1637 40.9295L32.3099 43.2736L33 44Z" fill="url(#paint11_radial_2101_23)"/>
<path d="M73 33.2297V37.6235C72.9989 39.3322 72.3595 40.9706 71.2223 42.1784C70.0852 43.3863 68.5433 44.0648 66.9357 44.0648H45.5928L53.0337 52H44.6131L37.4079 44.056L34.6217 40.9803L37.3128 37.9837L44.5842 29.9167H53.0089C52.3891 30.5818 51.9683 31.4269 51.7993 32.3456C51.6303 33.2643 51.7208 34.2156 52.0593 35.0798C52.3977 35.944 52.9691 36.6825 53.7015 37.2023C54.434 37.7222 55.2947 38.0002 56.1754 38.0013H65.1292C65.4115 38.0025 65.6912 37.9445 65.9525 37.8308C66.2137 37.717 66.4513 37.5497 66.6516 37.3383C66.852 37.127 67.0113 36.8758 67.1203 36.599C67.2293 36.3222 67.286 36.0254 67.2871 35.7253V33.1462C67.1593 30.2671 65.9909 27.5515 64.0255 25.5656C62.06 23.5797 59.4493 22.4768 56.7376 22.4868C56.1356 22.491 55.5351 22.5527 54.9435 22.6713C54.5619 22.7392 54.1713 22.724 53.7954 22.6265C53.4195 22.5291 53.0661 22.3515 52.7567 22.1045C52.4408 21.8662 52.1761 21.5592 51.9801 21.2039C51.7841 20.8487 51.6614 20.4533 51.6199 20.0438C51.2776 17.0678 50.1496 14.2555 48.3663 11.9324C46.5831 9.60932 44.2175 7.8703 41.5432 6.91653C38.8689 5.96276 35.9953 5.83321 33.2546 6.54287C30.514 7.25254 28.0183 8.77241 26.0564 10.9267C25.6694 11.3417 25.1818 11.6348 24.6478 11.7736C24.1138 11.9124 23.554 11.8915 23.0305 11.7132C21.7165 11.2921 20.3663 11.011 19 10.874C21.0611 7.12104 24.1248 4.10361 27.8022 2.20465C31.4796 0.305693 35.6049 -0.389176 39.6545 0.208238C43.7041 0.805651 47.4954 2.66841 50.5473 5.56009C53.5991 8.45178 55.7738 12.242 56.7955 16.4497C65.5095 16.4497 72.6238 23.9631 73 33.2297Z" fill="url(#paint12_radial_2101_23)"/>
</g>
<defs>
<radialGradient id="paint0_radial_2101_23" cx="0" cy="0" r="1" gradientUnits="userSpaceOnUse" gradientTransform="translate(52.1325 -4.28853) scale(102.278 107.165)">
<stop stop-color="white"/>
</radialGradient>
<radialGradient id="paint1_radial_2101_23" cx="0" cy="0" r="1" gradientUnits="userSpaceOnUse" gradientTransform="translate(52.1329 -4.28846) scale(102.278 107.165)">
<stop stop-color="white"/>
</radialGradient>
<radialGradient id="paint2_radial_2101_23" cx="0" cy="0" r="1" gradientUnits="userSpaceOnUse" gradientTransform="translate(52.1326 -4.28846) scale(102.278 107.165)">
<stop stop-color="white"/>
</radialGradient>
<radialGradient id="paint3_radial_2101_23" cx="0" cy="0" r="1" gradientUnits="userSpaceOnUse" gradientTransform="translate(52.1327 -4.28846) scale(102.278 107.165)">
<stop stop-color="white"/>
<stop offset="1" stop-color="white"/>
</radialGradient>
<radialGradient id="paint4_radial_2101_23" cx="0" cy="0" r="1" gradientUnits="userSpaceOnUse" gradientTransform="translate(52.1327 -4.28853) scale(102.278 107.165)">
<stop stop-color="white"/>
<stop offset="1" stop-color="white"/>
</radialGradient>
<radialGradient id="paint5_radial_2101_23" cx="0" cy="0" r="1" gradientUnits="userSpaceOnUse" gradientTransform="translate(52.1326 -4.28853) scale(102.278 107.165)">
<stop stop-color="white"/>
<stop offset="1" stop-color="white"/>
</radialGradient>
<radialGradient id="paint6_radial_2101_23" cx="0" cy="0" r="1" gradientUnits="userSpaceOnUse" gradientTransform="translate(234.813 -33.0769) scale(102.278 107.165)">
<stop stop-color="white"/>
<stop offset="1" stop-color="white"/>
</radialGradient>
<radialGradient id="paint7_radial_2101_23" cx="0" cy="0" r="1" gradientUnits="userSpaceOnUse" gradientTransform="translate(234.813 -33.0769) scale(102.278 107.165)">
<stop stop-color="white"/>
<stop offset="1" stop-color="white"/>
</radialGradient>
<radialGradient id="paint8_radial_2101_23" cx="0" cy="0" r="1" gradientUnits="userSpaceOnUse" gradientTransform="translate(234.813 -33.0769) scale(102.278 107.165)">
<stop stop-color="white"/>
<stop offset="1" stop-color="white"/>
</radialGradient>
<radialGradient id="paint9_radial_2101_23" cx="0" cy="0" r="1" gradientUnits="userSpaceOnUse" gradientTransform="translate(234.813 -33.0769) scale(102.278 107.165)">
<stop stop-color="white"/>
<stop offset="1" stop-color="white"/>
</radialGradient>
<radialGradient id="paint10_radial_2101_23" cx="0" cy="0" r="1" gradientUnits="userSpaceOnUse" gradientTransform="translate(234.813 -33.0769) scale(102.278 107.165)">
<stop stop-color="white"/>
<stop offset="1" stop-color="white"/>
</radialGradient>
<radialGradient id="paint11_radial_2101_23" cx="0" cy="0" r="1" gradientUnits="userSpaceOnUse" gradientTransform="translate(56.3129 -7.05754) scale(71.3148 75.5234)">
<stop stop-color="white"/>
<stop offset="1" stop-color="white"/>
</radialGradient>
<radialGradient id="paint12_radial_2101_23" cx="0" cy="0" r="1" gradientUnits="userSpaceOnUse" gradientTransform="translate(55.9315 -6.28387) scale(70.0557 74.4619)">
<stop stop-color="white"/>
<stop offset="1" stop-color="white"/>
</radialGradient>
<clipPath id="clip0_2101_23">
<rect width="368" height="52" fill="white"/>
</clipPath>
</defs>
</svg>
